<svg xmlns="http://www.w3.org/2000/svg" width="800" height="400" viewBox="0 0 800 400">
  <defs>
    <linearGradient id="g" x1="0%" y1="0%" x2="100%" y2="100%">
      <stop offset="0%" style="stop-color:#1e1b4b"/>
      <stop offset="100%" style="stop-color:#4a044e"/>
    </linearGradient>
  </defs>
  <rect width="800" height="400" fill="url(#g)"/>
  <rect width="800" height="400" fill="#7c3aed" fill-opacity="0.08"/>
  <!-- Palette icon -->
  <g transform="translate(340, 155)" stroke="#a78bfa" stroke-width="2.5" fill="none" stroke-linecap="round" stroke-linejoin="round">
    <path d="M12 2C6.5 2 2 6.5 2 12s4.5 10 10 10c.926 0 1.648-.746 1.648-1.688 0-.437-.18-.835-.437-1.125-.29-.289-.438-.652-.438-1.125a1.64 1.64 0 0 1 1.668-1.668h1.996c3.051 0 5.555-2.503 5.555-5.554C21.965 6.012 17.461 2 12 2z"/>
    <circle cx="7.5" cy="11.5" r="1.5" fill="#a78bfa"/>
    <circle cx="12" cy="7.5" r="1.5" fill="#a78bfa"/>
    <circle cx="16.5" cy="11.5" r="1.5" fill="#a78bfa"/>
    <circle cx="12" cy="16" r="1.5" fill="#a78bfa"/>
  </g>
  <text x="400" y="230" font-family="system-ui,sans-serif" font-size="15" fill="#a78bfa" fill-opacity="0.7" text-anchor="middle" letter-spacing="3">ART GALLERY</text>
</svg>
