<svg xmlns="http://www.w3.org/2000/svg" width="800" height="400" viewBox="0 0 800 400">
  <defs>
    <linearGradient id="g" x1="0%" y1="0%" x2="100%" y2="100%">
      <stop offset="0%" style="stop-color:#1a0505"/>
      <stop offset="100%" style="stop-color:#7f1d1d"/>
    </linearGradient>
  </defs>
  <rect width="800" height="400" fill="url(#g)"/>
  <rect width="800" height="400" fill="#dc2626" fill-opacity="0.08"/>
  <!-- UtensilsCrossed icon -->
  <g transform="translate(336, 152)" stroke="#fca5a5" stroke-width="2.5" fill="none" stroke-linecap="round" stroke-linejoin="round">
    <path d="m16 2-2.3 2.3a3 3 0 0 0 0 4.2l1.8 1.8a3 3 0 0 0 4.2 0L22 8"/>
    <path d="M15 15 3.3 3.3a4.2 4.2 0 0 0 0 6l7.3 7.3c.7.7 2 .7 2.8 0L15 15zm0 0 7 7"/>
    <path d="m2.1 21.8 6.4-6.3"/>
    <path d="m19 5-7 7"/>
  </g>
  <text x="400" y="230" font-family="system-ui,sans-serif" font-size="15" fill="#fca5a5" fill-opacity="0.7" text-anchor="middle" letter-spacing="3">FOOD &amp; SPECIALTY</text>
</svg>
