<svg xmlns="http://www.w3.org/2000/svg" width="800" height="400" viewBox="0 0 800 400">
  <defs>
    <linearGradient id="g" x1="0%" y1="0%" x2="100%" y2="100%">
      <stop offset="0%" style="stop-color:#052e16"/>
      <stop offset="100%" style="stop-color:#14532d"/>
    </linearGradient>
  </defs>
  <rect width="800" height="400" fill="url(#g)"/>
  <rect width="800" height="400" fill="#16a34a" fill-opacity="0.08"/>
  <!-- Gift icon -->
  <g transform="translate(336, 152)" stroke="#86efac" stroke-width="2.5" fill="none" stroke-linecap="round" stroke-linejoin="round">
    <polyline points="20 12 20 22 4 22 4 12"/>
    <rect x="2" y="7" width="20" height="5"/>
    <line x1="12" y1="22" x2="12" y2="7"/>
    <path d="M12 7H7.5a2.5 2.5 0 0 1 0-5C11 2 12 7 12 7z"/>
    <path d="M12 7h4.5a2.5 2.5 0 0 0 0-5C13 2 12 7 12 7z"/>
  </g>
  <text x="400" y="230" font-family="system-ui,sans-serif" font-size="15" fill="#86efac" fill-opacity="0.7" text-anchor="middle" letter-spacing="3">GIFT SHOP</text>
</svg>
